# xmcd CD database file
#
# Track frame offsets:
#	150
#	11258
#	22587
#	34517
#	45705
#	58284
#	68724
#	79959
#	94429
#	109684
#	124853
#	138946
#	151504
#	164955
#	179185
#	193052
#	208472
#	221545
#	234869
#	247190
#
# Disc length: 3448 seconds
#
# Revision: 0
# Processed by: cddbd v1.4PL0 Copyright (c) Steve Scherf et al.
# Submitted via: CDex 1.40Release
#
DISCID=1f0d7614
DTITLE=Jimmie Revard - Hillbilly Swing CD #3
DYEAR=1900
DGENRE=Country
TTITLE0=Pappa's Gettin' Mad (1937)
TTITLE1=Does My Baby Love Me, Yes Sir (1937)
TTITLE2=Let Me Live And Love You (1937)
TTITLE3=Gee! But It's Great To Be Walking Back Home (1937)
TTITLE4=Cats Are Bad Luck (1937)
TTITLE5=Am I Blue (1937)
TTITLE6=It's All So Sweet (1937)
TTITLE7=Everything's Gonna Be All Right (1938)
TTITLE8=Goodness Gracious Gracie (1938)
TTITLE9=I'm Waitin' Mabel (1938)
TTITLE10=You're As Pretty As A Picture (1938)
TTITLE11=Old Waterfall (1938)
TTITLE12=Is There Still Room For Me (1938)
TTITLE13=My Ozark Mountain Home (1938)
TTITLE14=Ther's A Picture In My Heart (1938)
TTITLE15=The Bees Are In The Hive (1938)
TTITLE16=Baby Your Mother (1938)
TTITLE17=Tell Me, Little Coquette (1938)
TTITLE18=Someone Else You Care For (1938)
TTITLE19=Hill Billy Swing  (1938)
EXTD=ID3G: 2
EXTT0=
EXTT1=
EXTT2=
EXTT3=
EXTT4=
EXTT5=
EXTT6=
EXTT7=
EXTT8=
EXTT9=
EXTT10=
EXTT11=
EXTT12=
EXTT13=
EXTT14=
EXTT15=
EXTT16=
EXTT17=
EXTT18=
EXTT19=
PLAYORDER=
